<?xml version="1.0" encoding="UTF-8" standalone="no"?>
<svg xmlns="http://www.w3.org/2000/svg" viewBox="0 0 300 300" id="seven-min">
    <path id="frame"  fill="#224444" d="m 120,3 0,24 20,0 0,17 C 74,49 22,104 22,170 c 0,70 57,127 127,127 70,0 127,-57 127,-127 0,-28 -9,-55 -25,-76 l 0,0 27,-27 -25,-25 -27,27 C 207,55 185,46 160,44 l 0,-17 20,0 0,-24 z" />
    <path id="circle" fill="#ffffff" d="m 149,63 c 59,0 107,48 107,107 0,59 -48,107 -107,107 -59,0 -107,-48 -107,-107 0,-59 48,-107 107,-107 z" />
    <path id="seven"  fill="#224444" d="m 125,245 c 1,-11 3,-22 6,-34 3,-12 7,-23 12,-34 5,-11 10,-22 15,-31 6,-10 11,-17 16,-23 l -71,0 0,-16 93,0 0,15 c -5,5 -10,12 -15,21 -6,9 -11,19 -16,30 -5,11 -9,23 -13,35 -4,12 -6,25 -7,37" /><!-- font-family="Ubuntu" -->
</svg>
